<?xml version="1.0" encoding="UTF-8"?>
<svg version="1.1" xmlns="http://www.w3.org/2000/svg" width="512" height="512">
<path d="M0 0 C0.71027814 -0.00367669 1.42055628 -0.00735338 2.152358 -0.01114148 C4.53268591 -0.02215536 6.91297014 -0.02601829 9.2933197 -0.02983093 C11.00017942 -0.03609745 12.70703778 -0.04274442 14.41389465 -0.04974365 C20.02074741 -0.07076867 25.62760038 -0.08114638 31.23448181 -0.09111023 C33.16710868 -0.09515873 35.09973541 -0.09927568 37.03236198 -0.10346031 C46.1151532 -0.12251062 55.19793631 -0.13674052 64.28074366 -0.14507228 C74.75143292 -0.15483657 85.22191032 -0.18113567 95.69252497 -0.22157317 C103.79377386 -0.25178188 111.8949622 -0.26654577 119.99626631 -0.26985329 C124.83069636 -0.27219886 129.66490006 -0.28109454 134.49926949 -0.30631447 C139.05231013 -0.32968271 143.60497679 -0.33379341 148.15806198 -0.32355309 C149.82245443 -0.32305969 151.48686583 -0.32932169 153.15120125 -0.34310913 C167.69107105 -0.4567466 180.19932593 2.34579594 191.36338806 12.29951477 C202.26338164 23.54582922 205.16064186 35.397995 205.24449158 50.47383118 C205.25604836 51.92282345 205.27655852 53.37177194 205.30601501 54.82051086 C205.3486573 56.91927364 205.36484986 59.01677912 205.37510681 61.11592102 C205.39698059 62.99440735 205.39698059 62.99440735 205.41929626 64.9108429 C204.94932556 68.14717102 204.94932556 68.14717102 203.17271423 70.58662415 C200.94932556 72.14717102 200.94932556 72.14717102 196.94932556 72.14717102 C196.94932556 77.42717102 196.94932556 82.70717102 196.94932556 88.14717102 C200.32151306 88.02342102 200.32151306 88.02342102 203.76182556 87.89717102 C232.41430761 87.62329795 259.21706997 101.18879826 279.94932556 120.14717102 C280.74854431 120.86388977 281.54776306 121.58060852 282.37120056 122.31904602 C293.69830966 133.00348226 301.66959199 146.019624 307.94932556 160.14717102 C308.43143494 161.21322571 308.91354431 162.2792804 309.41026306 163.37763977 C321.22593512 191.62783751 320.2027791 225.12438311 309.26182556 253.39717102 C303.34705516 267.78216936 295.41597526 279.70118568 284.94932556 291.14717102 C284.23260681 291.94638977 283.51588806 292.74560852 282.77745056 293.56904602 C272.08795769 304.90151591 259.07573657 312.85307837 244.94932556 319.14717102 C243.36764587 319.87033508 243.36764587 319.87033508 241.75401306 320.60810852 C227.43033791 326.65262617 212.37659875 328.76426195 196.94932556 328.14717102 C196.94932556 333.42717102 196.94932556 338.70717102 196.94932556 344.14717102 C198.92932556 344.47717102 200.90932556 344.80717102 202.94932556 345.14717102 C205.15571559 348.45675606 205.20849939 349.50747867 205.23985291 353.36201477 C205.25261261 354.42742493 205.26537231 355.49283508 205.27851868 356.5905304 C205.28074432 357.7435968 205.28296997 358.89666321 205.28526306 360.08467102 C205.29524826 361.87034485 205.29524826 361.87034485 205.30543518 363.6920929 C205.31557286 366.21730503 205.32025186 368.74254402 205.31993103 371.26777649 C205.32427704 375.10433721 205.36051169 378.93972225 205.39854431 382.77607727 C205.40441786 385.23310461 205.40838365 387.69013738 205.41026306 390.14717102 C205.42463409 391.28404358 205.43900513 392.42091614 205.45381165 393.59223938 C205.3838801 405.98717747 201.09099816 417.25868886 192.79698181 426.56123352 C183.89963089 435.18459794 173.27413803 440.25278219 160.89865112 440.29434204 C160.18837298 440.29801873 159.47809485 440.30169542 158.74629313 440.30548352 C156.36596521 440.3164974 153.98568098 440.32036033 151.60533142 440.32417297 C149.8984717 440.33043949 148.19161334 440.33708646 146.48475647 440.34408569 C140.87790372 440.36511071 135.27105075 440.37548842 129.66416931 440.38545227 C127.73154244 440.38950077 125.79891572 440.39361772 123.86628914 440.39780235 C114.78349792 440.41685266 105.70071481 440.43108256 96.61790746 440.43941432 C86.1472182 440.44917861 75.6767408 440.47547771 65.20612615 440.51591522 C57.10487726 440.54612392 49.00368892 440.56088781 40.90238482 440.56419533 C36.06795476 440.5665409 31.23375107 440.57543658 26.39938164 440.60065651 C21.84634099 440.62402475 17.29367433 440.62813545 12.74058914 440.61789513 C11.07619669 440.61740174 9.41178529 440.62366373 7.74744987 440.63745117 C-7.30138806 440.75506652 -19.54486096 437.59475575 -31.08583069 427.33857727 C-39.05888252 418.90992248 -44.29301563 407.25366697 -44.30794334 395.63463306 C-44.31439224 394.36014012 -44.32084113 393.08564718 -44.32748544 391.77253324 C-44.3245436 390.37078551 -44.3214082 388.96903817 -44.31809998 387.56729126 C-44.32183865 386.06837253 -44.32644103 384.56945574 -44.33183062 383.07054204 C-44.34404942 378.95932954 -44.34380147 374.84819848 -44.34144187 370.73697197 C-44.34103342 366.29986516 -44.35207564 361.86278436 -44.36155701 357.4256897 C-44.37816226 348.73503777 -44.38366635 340.04441298 -44.38478176 331.35374651 C-44.38573254 324.28784112 -44.38984433 317.22194466 -44.39618301 310.1560421 C-44.41379477 290.11532222 -44.42302208 270.07462374 -44.42152207 250.03389607 C-44.42144215 248.95374018 -44.42136224 247.87358429 -44.42127991 246.76069641 C-44.42115727 245.1384801 -44.42115727 245.1384801 -44.42103215 243.48349174 C-44.42021945 225.96125337 -44.43935317 208.439101 -44.46755664 190.9168875 C-44.4962987 172.9177643 -44.51009618 154.91868302 -44.50836909 136.91953629 C-44.5077056 126.81741751 -44.51317959 116.71538887 -44.53472519 106.61329079 C-44.55295445 98.01108424 -44.55727005 89.40900868 -44.54370634 80.80679116 C-44.53718527 76.42046201 -44.53702821 72.03438404 -44.55441284 67.64807892 C-44.57018707 63.62660792 -44.56723593 59.60558635 -44.54984458 55.58412602 C-44.54678419 54.13527332 -44.55037059 52.68638671 -44.56156473 51.23757402 C-44.667579 36.53371272 -41.08348822 24.37136842 -31.31239319 13.15107727 C-22.91043817 5.07296634 -11.57006151 0.03885504 0 0 Z " fill="#E5E6E7" transform="translate(75.05067443847656,31.852828979492188)"/>
<path d="M0 0 C2.65876836 2.24082318 5.22988715 4.5617645 7.79614258 6.90844727 C8.9949707 7.98352539 8.9949707 7.98352539 10.21801758 9.08032227 C21.54512667 19.7647585 29.516409 32.78090024 35.79614258 46.90844727 C36.51930664 48.5075293 36.51930664 48.5075293 37.25708008 50.13891602 C49.07275214 78.38911376 48.04959612 111.88565936 37.10864258 140.15844727 C31.19387217 154.5434456 23.26279228 166.46246192 12.79614258 177.90844727 C12.07942383 178.70766602 11.36270508 179.50688477 10.62426758 180.33032227 C-0.0652253 191.66279215 -13.07744641 199.61435462 -27.20385742 205.90844727 C-28.25831055 206.39055664 -29.31276367 206.87266602 -30.39916992 207.36938477 C-58.20105939 219.10163991 -89.97615558 217.58142868 -118.01635742 207.65844727 C-148.614796 194.79591825 -172.96449653 172.66830819 -186.20385742 141.90844727 C-197.96248605 111.37144372 -199.35618489 78.25451587 -186.10620117 47.90014648 C-172.48587225 17.83666073 -149.06468264 -5.98022834 -117.9387207 -17.96362305 C-113.73093603 -19.41883471 -109.47900653 -20.58886157 -105.14916992 -21.61987305 C-103.36428217 -22.05265456 -101.59526088 -22.54955592 -99.82885742 -23.05249023 C-65.73279412 -31.65543213 -27.0537131 -22.0568014 0 0 Z " fill="#00AFFE" transform="translate(347.203857421875,145.091552734375)"/>
<path d="M0 0 C0.71027814 -0.00367669 1.42055628 -0.00735338 2.152358 -0.01114148 C4.53268591 -0.02215536 6.91297014 -0.02601829 9.2933197 -0.02983093 C11.00017942 -0.03609745 12.70703778 -0.04274442 14.41389465 -0.04974365 C20.02074741 -0.07076867 25.62760038 -0.08114638 31.23448181 -0.09111023 C33.16710868 -0.09515873 35.09973541 -0.09927568 37.03236198 -0.10346031 C46.1151532 -0.12251062 55.19793631 -0.13674052 64.28074366 -0.14507228 C74.75143292 -0.15483657 85.22191032 -0.18113567 95.69252497 -0.22157317 C103.79377386 -0.25178188 111.8949622 -0.26654577 119.99626631 -0.26985329 C124.83069636 -0.27219886 129.66490006 -0.28109454 134.49926949 -0.30631447 C139.05231013 -0.32968271 143.60497679 -0.33379341 148.15806198 -0.32355309 C149.82245443 -0.32305969 151.48686583 -0.32932169 153.15120125 -0.34310913 C167.69107105 -0.4567466 180.19932593 2.34579594 191.36338806 12.29951477 C202.26338164 23.54582922 205.16064186 35.397995 205.24449158 50.47383118 C205.25604836 51.92282345 205.27655852 53.37177194 205.30601501 54.82051086 C205.3486573 56.91927364 205.36484986 59.01677912 205.37510681 61.11592102 C205.39698059 62.99440735 205.39698059 62.99440735 205.41929626 64.9108429 C204.94932556 68.14717102 204.94932556 68.14717102 203.14146423 70.5592804 C199.96589909 72.85952271 197.77453779 72.62532255 193.94932556 72.14717102 C190.76428986 70.38701971 190.11635584 69.64826186 188.94932556 66.14717102 C188.86896696 64.29571602 188.84101196 62.44177317 188.84385681 60.58857727 C189.00123648 41.82093403 189.00123648 41.82093403 180.01963806 25.99873352 C172.2975149 18.63717642 164.01450274 16.97884678 153.58604431 17.04951477 C152.39806999 17.05163719 152.39806999 17.05163719 151.18609619 17.05380249 C148.66963338 17.05937645 146.15326125 17.07192409 143.63682556 17.08467102 C141.92523831 17.08968939 140.21364966 17.09425171 138.50205994 17.0983429 C134.31778048 17.10933734 130.13356837 17.12658395 125.94932556 17.14717102 C125.49041931 18.0624054 125.03151306 18.97763977 124.55870056 19.92060852 C123.93951955 21.12144442 123.31969395 22.3219481 122.69932556 23.52217102 C122.24879822 24.4270929 122.24879822 24.4270929 121.78916931 25.35029602 C119.92660763 28.91690349 118.73358794 30.77551568 114.94932556 32.14717102 C111.95837402 32.42132568 111.95837402 32.42132568 108.42417908 32.4535675 C107.77813721 32.46189102 107.13209534 32.47021454 106.46647644 32.47879028 C104.33699978 32.50282897 102.20782964 32.51165387 100.07823181 32.51826477 C98.59376943 32.52723458 97.10930796 32.53635649 95.62484741 32.54562378 C92.51545517 32.56209877 89.40617043 32.56981136 86.29673767 32.57270813 C82.31735176 32.57809584 78.3389791 32.61579652 74.35987949 32.66145229 C71.29459969 32.6912286 68.22956399 32.69843176 65.16415215 32.69943428 C63.69733467 32.70363419 62.23051632 32.71605959 60.76384163 32.73695183 C58.70976254 32.76388694 56.65803354 32.75903869 54.60386658 32.74653625 C53.43678665 32.7516069 52.26970673 32.75667755 51.06726074 32.76190186 C47.01244662 31.96245635 45.56091821 30.27168826 42.94932556 27.14717102 C41.36729431 24.76045227 41.36729431 24.76045227 40.13682556 22.45967102 C39.71788025 21.69267883 39.29893494 20.92568665 38.86729431 20.13545227 C37.94932556 18.14717102 37.94932556 18.14717102 37.94932556 16.14717102 C32.18680562 16.14179697 26.42628114 16.17595741 20.66416931 16.24482727 C18.70915999 16.26285766 16.75402463 16.2705796 14.79893494 16.26728821 C2.17121254 16.25437643 -8.11581196 16.37382023 -18.1688385 24.95527649 C-26.78378179 33.84516478 -27.63964425 44.01568864 -27.55860901 55.87348938 C-27.56322447 57.35167777 -27.56958171 58.82986156 -27.57751799 60.30803585 C-27.59414598 64.34802599 -27.58599493 68.38763596 -27.57357311 72.42762709 C-27.56449805 76.7930805 -27.5785045 81.15846995 -27.5894928 85.52391052 C-27.60725644 94.0671349 -27.60344765 102.61021851 -27.59184223 111.15344834 C-27.5827997 118.09821618 -27.58158746 125.04294464 -27.5859375 131.98771667 C-27.58655043 132.97705387 -27.58716336 133.96639107 -27.58779487 134.98570818 C-27.5890738 136.99568154 -27.59037066 139.00565488 -27.59168524 141.01562822 C-27.60308472 159.85232552 -27.58998723 178.68894488 -27.56848377 197.5256294 C-27.55061337 213.67978907 -27.55371765 229.83383374 -27.57215881 245.98799133 C-27.59357667 264.75841063 -27.60198614 283.52876166 -27.58970976 302.29919147 C-27.5884356 304.30166943 -27.58717811 306.30414739 -27.5859375 308.30662537 C-27.58501185 309.78441708 -27.58501185 309.78441708 -27.58406749 311.29206318 C-27.58061734 318.22651972 -27.58643572 325.16093287 -27.59585571 332.09538269 C-27.60708723 340.54900178 -27.60401139 349.00247235 -27.58273274 357.45607448 C-27.57223785 361.76723321 -27.56807377 366.07814453 -27.58132935 370.3893013 C-27.59329158 374.3396345 -27.58662813 378.2894921 -27.56541914 382.23978245 C-27.56096922 383.66495011 -27.56318299 385.09015835 -27.57292229 386.51529968 C-27.64335058 397.68188868 -26.15742934 407.02880951 -18.1889801 415.33861828 C-8.85187307 423.23582905 0.9120549 424.01782258 12.54307556 423.90766907 C14.18053852 423.91417634 15.81799297 423.92324735 17.45542908 423.93466187 C21.86890745 423.95758381 26.28151222 423.9431187 30.69496155 423.92019248 C35.33379711 423.90115672 39.97257851 423.91245357 44.61143494 423.9190979 C52.39868403 423.92542224 60.18558671 423.90725305 67.97276306 423.87446594 C76.95024221 423.83697754 85.92706535 423.83875513 94.90457916 423.86150712 C103.57362912 423.88252295 112.24243874 423.87514419 120.91148376 423.85518837 C124.58587086 423.8472433 128.26005239 423.84914436 131.93443298 423.85921288 C136.2686177 423.86983546 140.6020461 423.85543467 144.93611145 423.82246971 C146.51781664 423.81432612 148.09959191 423.81447077 149.68128967 423.82394791 C160.87484889 423.88360417 171.01289596 422.62826726 179.88682556 415.08467102 C190.21758254 403.09917694 188.57789944 388.57892394 188.44932556 373.70967102 C188.41066286 369.18962125 188.4043462 364.67123768 188.41807556 360.15107727 C188.39845764 359.12083939 188.37883972 358.0906015 188.35862732 357.02914429 C188.38453648 349.91778825 188.38453648 349.91778825 191.25987244 345.99458313 C194.78686863 343.57185435 196.75406453 343.46067376 200.94932556 344.14717102 C203.55303636 346.17781132 204.7914035 347.37144673 205.45726013 350.6421814 C205.4604425 351.57718979 205.46362488 352.51219818 205.46690369 353.47554016 C205.47951233 354.54087479 205.49212097 355.60620941 205.50511169 356.7038269 C205.49701477 357.85173203 205.48891785 358.99963715 205.48057556 360.18232727 C205.48440247 361.37136154 205.48822937 362.56039581 205.49217224 363.78546143 C205.49489522 366.30472152 205.48750724 368.82400971 205.47080994 371.34321594 C205.44953988 375.17110129 205.470532 378.9970811 205.49620056 382.8249054 C205.49355477 385.27738346 205.48842461 387.72986034 205.48057556 390.18232727 C205.48867249 391.31606277 205.49676941 392.44979828 205.50511169 393.6178894 C205.36163026 405.99207403 201.0801422 417.27086488 192.79698181 426.56123352 C183.89963089 435.18459794 173.27413803 440.25278219 160.89865112 440.29434204 C160.18837298 440.29801873 159.47809485 440.30169542 158.74629313 440.30548352 C156.36596521 440.3164974 153.98568098 440.32036033 151.60533142 440.32417297 C149.8984717 440.33043949 148.19161334 440.33708646 146.48475647 440.34408569 C140.87790372 440.36511071 135.27105075 440.37548842 129.66416931 440.38545227 C127.73154244 440.38950077 125.79891572 440.39361772 123.86628914 440.39780235 C114.78349792 440.41685266 105.70071481 440.43108256 96.61790746 440.43941432 C86.1472182 440.44917861 75.6767408 440.47547771 65.20612615 440.51591522 C57.10487726 440.54612392 49.00368892 440.56088781 40.90238482 440.56419533 C36.06795476 440.5665409 31.23375107 440.57543658 26.39938164 440.60065651 C21.84634099 440.62402475 17.29367433 440.62813545 12.74058914 440.61789513 C11.07619669 440.61740174 9.41178529 440.62366373 7.74744987 440.63745117 C-7.30138806 440.75506652 -19.54486096 437.59475575 -31.08583069 427.33857727 C-39.05888252 418.90992248 -44.29301563 407.25366697 -44.30794334 395.63463306 C-44.31439224 394.36014012 -44.32084113 393.08564718 -44.32748544 391.77253324 C-44.3245436 390.37078551 -44.3214082 388.96903817 -44.31809998 387.56729126 C-44.32183865 386.06837253 -44.32644103 384.56945574 -44.33183062 383.07054204 C-44.34404942 378.95932954 -44.34380147 374.84819848 -44.34144187 370.73697197 C-44.34103342 366.29986516 -44.35207564 361.86278436 -44.36155701 357.4256897 C-44.37816226 348.73503777 -44.38366635 340.04441298 -44.38478176 331.35374651 C-44.38573254 324.28784112 -44.38984433 317.22194466 -44.39618301 310.1560421 C-44.41379477 290.11532222 -44.42302208 270.07462374 -44.42152207 250.03389607 C-44.42144215 248.95374018 -44.42136224 247.87358429 -44.42127991 246.76069641 C-44.42115727 245.1384801 -44.42115727 245.1384801 -44.42103215 243.48349174 C-44.42021945 225.96125337 -44.43935317 208.439101 -44.46755664 190.9168875 C-44.4962987 172.9177643 -44.51009618 154.91868302 -44.50836909 136.91953629 C-44.5077056 126.81741751 -44.51317959 116.71538887 -44.53472519 106.61329079 C-44.55295445 98.01108424 -44.55727005 89.40900868 -44.54370634 80.80679116 C-44.53718527 76.42046201 -44.53702821 72.03438404 -44.55441284 67.64807892 C-44.57018707 63.62660792 -44.56723593 59.60558635 -44.54984458 55.58412602 C-44.54678419 54.13527332 -44.55037059 52.68638671 -44.56156473 51.23757402 C-44.667579 36.53371272 -41.08348822 24.37136842 -31.31239319 13.15107727 C-22.91043817 5.07296634 -11.57006151 0.03885504 0 0 Z " fill="#0000DD" transform="translate(75.05067443847656,31.852828979492188)"/>
<path d="M0 0 C2.65876836 2.24082318 5.22988715 4.5617645 7.79614258 6.90844727 C8.9949707 7.98352539 8.9949707 7.98352539 10.21801758 9.08032227 C21.54512667 19.7647585 29.516409 32.78090024 35.79614258 46.90844727 C36.51930664 48.5075293 36.51930664 48.5075293 37.25708008 50.13891602 C49.07275214 78.38911376 48.04959612 111.88565936 37.10864258 140.15844727 C31.19387217 154.5434456 23.26279228 166.46246192 12.79614258 177.90844727 C12.07942383 178.70766602 11.36270508 179.50688477 10.62426758 180.33032227 C-0.0652253 191.66279215 -13.07744641 199.61435462 -27.20385742 205.90844727 C-28.25831055 206.39055664 -29.31276367 206.87266602 -30.39916992 207.36938477 C-58.20105939 219.10163991 -89.97615558 217.58142868 -118.01635742 207.65844727 C-148.614796 194.79591825 -172.96449653 172.66830819 -186.20385742 141.90844727 C-197.96248605 111.37144372 -199.35618489 78.25451587 -186.10620117 47.90014648 C-172.48587225 17.83666073 -149.06468264 -5.98022834 -117.9387207 -17.96362305 C-113.73093603 -19.41883471 -109.47900653 -20.58886157 -105.14916992 -21.61987305 C-103.36428217 -22.05265456 -101.59526088 -22.54955592 -99.82885742 -23.05249023 C-65.73279412 -31.65543213 -27.0537131 -22.0568014 0 0 Z M-142.20385742 14.90844727 C-142.97987305 15.52075195 -143.75588867 16.13305664 -144.55541992 16.76391602 C-163.68090465 32.61171166 -176.16231311 57.41524189 -179.20385742 81.90844727 C-181.31828949 110.12025713 -174.73642373 139.08744554 -155.95776367 160.91625977 C-155.37897461 161.57368164 -154.80018555 162.23110352 -154.20385742 162.90844727 C-153.44073242 163.91907227 -152.67760742 164.92969727 -151.89135742 165.97094727 C-135.28003589 184.12750801 -110.07883303 197.20211621 -85.37133789 199.12939453 C-57.62217402 200.21295084 -30.10639383 194.24192307 -8.76635742 175.28344727 C-7.23450256 173.83669545 -5.71187668 172.38002739 -4.20385742 170.90844727 C-3.35823242 170.10407227 -2.51260742 169.29969727 -1.64135742 168.47094727 C-0.83698242 167.62532227 -0.03260742 166.77969727 0.79614258 165.90844727 C1.44969727 165.26133789 2.10325195 164.61422852 2.77661133 163.94750977 C16.59198881 149.63278129 24.67187403 130.32836111 27.79614258 110.90844727 C27.97790039 109.99192383 28.1596582 109.07540039 28.34692383 108.13110352 C31.86528621 82.89067774 25.79823021 56.73397718 11.07348633 35.90454102 C-7.16077644 11.91538228 -30.6610126 -3.86965891 -60.76635742 -8.78686523 C-90.36365818 -12.48652783 -119.30925151 -3.99135204 -142.20385742 14.90844727 Z " fill="#0002DD" transform="translate(347.203857421875,145.091552734375)"/>
<path d="M0 0 C3.66677373 0.64329364 5.4531142 1.39954629 7.6953125 4.42578125 C9.58483407 9.21767605 8.89982366 14.57264115 8.5625 19.625 C9.42875 19.57214844 10.295 19.51929688 11.1875 19.46484375 C17.60740635 19.76949208 23.71680637 23.19534345 28.56640625 27.3359375 C34.11990377 33.48793225 36.08543868 39.74742906 35.859375 47.96484375 C35.33830977 52.63386246 33.93737789 56.25012211 30.5625 59.625 C23.64045958 60.40652069 23.64045958 60.40652069 20.0625 57.8125 C18.1538635 53.75664743 18.45131793 50.63414415 18.59375 46.21875 C18.55225814 42.77492521 17.96707439 41.1071413 15.5625 38.625 C8.98688753 34.2910736 1.16908221 35.01278335 -6.4375 35.625 C-10.35922173 36.45299035 -12.80696328 38.06083557 -15.8125 40.75 C-18.05790073 44.72263206 -18.84232382 48.06500334 -18.4375 52.625 C-16.21478347 59.57580717 -10.51546012 63.34563567 -4.33984375 66.67138672 C0.44110003 69.06799432 5.37784538 71.14233542 10.27636719 73.28442383 C16.59523322 76.0861063 22.2613123 79.13211221 27.5625 83.625 C28.22378906 84.17671875 28.88507813 84.7284375 29.56640625 85.296875 C34.7748743 90.03777702 37.9298179 95.22883777 38.94140625 102.2578125 C39.32752366 111.00150361 36.95598375 119.00113704 31.5625 125.9375 C26.78816674 130.92791299 20.11366126 134.9071994 13.234375 135.9921875 C11.3125 136 11.3125 136 8.5625 135.625 C8.62050781 136.20507812 8.67851562 136.78515625 8.73828125 137.3828125 C8.97934353 141.55663362 9.04084029 144.72498235 6.5 148.1875 C3.5625 150.625 3.5625 150.625 0 151.25 C-4.01313825 150.5203385 -5.01066242 149.83621675 -7.4375 146.625 C-7.828125 143.390625 -7.828125 143.390625 -7.6875 139.875 C-7.65140625 138.70453125 -7.6153125 137.5340625 -7.578125 136.328125 C-7.53171875 135.43609375 -7.4853125 134.5440625 -7.4375 133.625 C-8.31664062 133.36847656 -9.19578125 133.11195313 -10.1015625 132.84765625 C-20.79663923 128.92779792 -30.07400836 119.55146214 -35.4375 109.625 C-35.95268691 106.01869166 -35.89130713 104.34352796 -33.9375 101.25 C-31.07884805 99.39187623 -28.9184543 99.07847792 -25.52832031 99.15234375 C-21.52172295 100.05808552 -19.51874829 103.22141311 -17.0625 106.3125 C-11.21092694 113.07120202 -6.39262168 117.8618886 2.82421875 119.04296875 C9.54155729 119.32636844 14.26013964 118.86688829 19.5625 114.625 C21.29066091 111.81526899 21.90199678 109.53599028 22 106.25 C22.05994141 105.15558594 22.05994141 105.15558594 22.12109375 104.0390625 C21.28385457 100.42078408 19.24242183 98.0714262 16.5625 95.625 C14.10792483 94.15281466 11.83176626 92.92622921 9.25 91.75 C7.8293001 91.07057797 6.40873111 90.39088214 4.98828125 89.7109375 C4.2607666 89.36901367 3.53325195 89.02708984 2.78369141 88.67480469 C-0.85501699 86.95503704 -4.45873371 85.16652628 -8.0625 83.375 C-8.71259033 83.05805176 -9.36268066 82.74110352 -10.0324707 82.41455078 C-14.05508576 80.42594777 -17.75319219 78.18265716 -21.4375 75.625 C-22.2625 75.068125 -23.0875 74.51125 -23.9375 73.9375 C-30.95025908 67.45069785 -35.3855725 58.90545324 -36 49.375 C-35.72314245 40.69611774 -31.40771717 33.35142698 -25.5625 27.125 C-20.43239467 22.40687254 -15.27368618 19.84110911 -8.4375 18.625 C-8.41171875 17.66078125 -8.3859375 16.6965625 -8.359375 15.703125 C-8.30265625 14.43984375 -8.2459375 13.1765625 -8.1875 11.875 C-8.14109375 10.62203125 -8.0946875 9.3690625 -8.046875 8.078125 C-7.12023447 2.82716199 -5.20686424 0.94670259 0 0 Z " fill="#0002DD" transform="translate(269.4375,164.375)"/>
</svg>
